<!DOCTYPE svg PUBLIC "-//W3C//DTD SVG 1.1//EN" "http://www.w3.org/Graphics/SVG/1.1/DTD/svg11.dtd">
<!-- Uploaded to: SVG Repo, www.svgrepo.com, Transformed by: SVG Repo Mixer Tools -->
<svg fill="#ffffff" height="64px" width="64px" version="1.1" id="Capa_1" xmlns="http://www.w3.org/2000/svg" xmlns:xlink="http://www.w3.org/1999/xlink" viewBox="0 0 350.988 350.988" xml:space="preserve" stroke="#ffffff">
<g id="SVGRepo_bgCarrier" stroke-width="0"/>
<g id="SVGRepo_iconCarrier"> <path d="M348.26,269.198c-1.983-2.525-5.018-4-8.228-4H208.973V135.566c23.71-12.499,38.439-36.887,38.439-63.648 C247.412,32.262,215.149,0,175.494,0c-39.655,0-71.918,32.262-71.918,71.918c0,26.761,14.729,51.149,38.439,63.648v129.632H10.957 c-3.211,0-6.245,1.475-8.229,4c-1.982,2.525-2.697,5.821-1.937,8.941l15.821,64.866c1.144,4.686,5.341,7.983,10.164,7.983h297.434 c4.823,0,9.021-3.297,10.164-7.983l15.821-64.866C350.957,275.02,350.242,271.724,348.26,269.198z"/> </g>
</svg>