<!DOCTYPE svg PUBLIC "-//W3C//DTD SVG 1.1//EN" "http://www.w3.org/Graphics/SVG/1.1/DTD/svg11.dtd">
<!-- Uploaded to: SVG Repo, www.svgrepo.com, Transformed by: SVG Repo Mixer Tools -->
<svg fill="#ffffff" width="64px" height="64px" viewBox="0 0 1000 1000" version="1.1" xmlns="http://www.w3.org/2000/svg" xmlns:xlink="http://www.w3.org/1999/xlink" enable-background="new 0 0 1000 1000" xml:space="preserve" stroke="#ffffff">
<g id="SVGRepo_bgCarrier" stroke-width="0"/>
<g id="SVGRepo_iconCarrier"> <g> <g transform="translate(0.000000,511.000000) scale(0.100000,-0.100000)"> <path d="M2154.8,4292.8v-715.2l158.1-474.2l158.1-474.2V839.1V-953l-395.2-632.3l-395.2-632.3v-1286.2V-4790H5000h3319.4v1286.3v1286.2l-395.2,632.3L7529-953v1792v1790.1l158.1,474.2l158.1,474.2v715.2V5010H5000H2154.8V4292.8z M7529,4219.7v-474.2H5000H2471v474.2v474.2h2529h2529V4219.7z M7436.2,3326.6c-15.8-57.3-63.2-197.6-104.7-312.2l-73.1-207.5l-2260.3-5.9l-2260.3-4l-96.8,290.4c-53.3,162-100.8,304.3-104.7,318.1c-7.9,17.8,492,23.7,2459.9,23.7h2471.7L7436.2,3326.6z M7212.9,720.5v-1760.4l326-521.6c179.8-286.5,326-525.6,326-531.5c0-5.9-1288.2-9.9-2864.9-9.9c-1574.7,0-2864.9,5.9-2864.9,11.9c0,5.9,146.2,247,326,533.5l326,521.6V722.5V2481H5000h2212.9V720.5z M8003.2-2893.2v-474.2H5000H1996.8v474.2v474.2H5000h3003.2V-2893.2z M8003.2-4078.7v-395.2H5000H1996.8v395.2v395.2H5000h3003.2V-4078.7z"/> <path d="M3281,2139.2c-98.8-31.6-282.5-221.3-312.2-322.1c-33.6-116.6-33.6-2033.1,0-2149.7c31.6-108.7,215.4-292.4,324-324c45.4-13.8,183.7-23.7,306.3-25.7c195.6,0,217.3-4,164-23.7c-158.1-61.3-284.5-197.6-328-357.6c-45.4-167.9,33.6-341.8,217.3-476.2l81-59.3V-1771l2-173.9h158.1h158.1v173.9c0,167.9,2,175.8,51.4,203.5c83,43.5,215.4,203.5,241,290.4c29.6,98.8,29.6,146.2,0,249c-29.6,100.8-213.4,290.4-312.2,322.1c-51.4,15.8,264.8,21.7,1262.5,23.7c978,2,1353.4,7.9,1412.7,25.7c108.7,31.6,292.4,215.4,324,324c33.6,116.6,33.6,2033.1,0,2149.7c-31.6,108.7-215.4,292.4-324,324C6596.4,2172.7,3383.8,2170.8,3281,2139.2z M6699.2,1809.2c37.5-37.5,39.5-65.2,39.5-1066.9c0-1001.7-2-1029.4-39.5-1066.9c-39.5-39.5-65.2-39.5-1699.2-39.5s-1659.7,0-1699.2,39.5c-37.5,37.5-39.5,65.2-39.5,1066.9c0,1001.7,2,1029.4,39.5,1066.9c39.5,39.5,65.2,39.5,1699.2,39.5S6659.7,1848.7,6699.2,1809.2z M4012.1-1036c25.7-25.7,39.5-65.2,39.5-118.6s-13.8-92.9-39.5-118.6c-25.7-25.7-65.2-39.5-118.5-39.5c-53.4,0-92.9,13.8-118.5,39.5s-39.5,65.2-39.5,118.6s13.8,92.9,39.5,118.6c25.7,25.7,65.2,39.5,118.5,39.5C3946.9-996.4,3986.4-1010.3,4012.1-1036z"/> <path d="M3577.4,1374.5v-158.1h158.1h158.1v158.1v158.1h-158.1h-158.1V1374.5z"/> <path d="M4209.7,1374.5v-158.1h158.1h158.1v158.1v158.1h-158.1h-158.1V1374.5z"/> <path d="M4841.9,1374.5v-158.1H5000h158.1v158.1v158.1H5000h-158.1V1374.5z"/> <path d="M5474.2,1374.5v-158.1h158.1h158.1v158.1v158.1h-158.1h-158.1V1374.5z"/> <path d="M6106.5,1374.5v-158.1h158.1h158.1v158.1v158.1h-158.1h-158.1V1374.5z"/> <path d="M4758.9,799.6L4525.8,683V475.5V268.1h-79h-79v79v79h-158.1h-158.1V189V-48.1h237.1h237.1v-79v-79H5000h474.2v79v79h237.1h237.1V189v237.1h-158.1h-158.1v-79v-79h-79h-79v207.5V683l-237.1,118.6C5106.7,866.7,4998,920.1,4996,918.1C4992.1,918.1,4885.4,864.8,4758.9,799.6z M5079,524.9l79-39.5V297.7V110H5000h-158.1v187.7v187.7l75.1,37.5C5007.9,572.3,4988.1,572.3,5079,524.9z"/> <path d="M4051.6,742.3V584.2h158.1h158.1v158.1v158.1h-158.1h-158.1V742.3z"/> <path d="M5632.3,742.3V584.2h158.1h158.1v158.1v158.1h-158.1h-158.1V742.3z"/> <path d="M4926.9-1652.4c-106.7-51.4-102.7-215.4,5.9-266.7c130.4-63.2,260.8,59.3,205.5,193.6C5102.7-1640.5,5015.8-1608.9,4926.9-1652.4z"/> <path d="M5555.2-1654.4c-106.7-53.3-94.8-225.2,19.8-270.7c175.9-73.1,298.4,195.6,124.5,274.6C5638.2-1622.8,5614.5-1622.8,5555.2-1654.4z"/> <path d="M6191.4-1652.4c-106.7-51.4-102.7-215.4,5.9-266.7c130.4-63.2,260.8,59.3,205.5,193.6C6367.3-1640.5,6280.3-1608.9,6191.4-1652.4z"/> </g> </g> </g>
</svg>