<svg xmlns="http://www.w3.org/2000/svg" xmlns:xlink="http://www.w3.org/1999/xlink" viewBox="0,0,256,256" width="15px" height="15px" fill-rule="nonzero"><g fill="#ffffff" fill-rule="nonzero" stroke="none" stroke-width="1" stroke-linecap="butt" stroke-linejoin="miter" stroke-miterlimit="10" stroke-dasharray="" stroke-dashoffset="0" font-family="none" font-weight="none" font-size="none" text-anchor="none" style="mix-blend-mode: normal"><g transform="scale(8.53333,8.53333)"><path d="M15,3c-1.949,0 -4.36402,0.61817 -6.16602,1.70117c-0.13,0.076 -0.48692,0.32097 -0.66992,0.54297v0.00195c1.719,-1.896 6.72894,2.1025 6.83594,2.1875v0.00195c0.107,-0.085 5.11694,-4.08345 6.83594,-2.18945c-0.184,-0.222 -0.54087,-0.46597 -0.67188,-0.54297c-1.801,-1.081 -3.90911,-1.70312 -6.16211,-1.70312zM7.44141,6.10352c-0.40505,0.06525 -0.85834,0.32369 -1.24609,0.74219c-1.983,2.141 -3.19531,5.00434 -3.19531,8.15234c0,3.10846 1.18269,5.93749 3.12109,8.06836c-0.636,-3.078 -0.05731,-5.24736 1.67969,-8.06836c1.74,-2.824 4.79883,-6 4.79883,-6c-2.524,-2.383 -4.31744,-2.80953 -4.77344,-2.89453c-0.12,-0.0225 -0.24975,-0.02175 -0.38477,0zM6.12109,23.06641v0.00195v0.00195c2.195,2.412 5.37386,3.92969 8.88086,3.92969c3.517,0 6.68291,-1.51478 8.87891,-3.92578v-0.00195c1.938,-2.132 3.11914,-4.96327 3.11914,-8.07227c0,-3.148 -1.21131,-6.01034 -3.19531,-8.15234c-0.517,-0.558 -1.15086,-0.83219 -1.63086,-0.74219c-0.455,0.086 -2.24944,0.51253 -4.77344,2.89453c0,0 3.05883,3.176 4.79883,6c1.736,2.822 2.31569,4.99036 1.67969,8.06836c-0.006,-0.035 -0.24923,-1.61461 -1.86523,-3.84961c-1.263,-1.743 -5.01367,-5.91836 -7.01367,-7.81836c-2,1.9 -5.75067,6.07141 -7.01367,7.81641c-1.616,2.233 -1.85923,3.81361 -1.86523,3.84961z"></path></g></g></svg>